<svg xmlns="http://www.w3.org/2000/svg" viewBox="0 0 32 32">
  <!-- Body -->
  <ellipse cx="16" cy="22" rx="10" ry="8" fill="#F5E6D3" stroke="#D4C0A8" stroke-width="0.8"/>
  <!-- Head -->
  <ellipse cx="16" cy="14" rx="9" ry="8" fill="#F5E6D3" stroke="#D4C0A8" stroke-width="0.8"/>
  <!-- Ears -->
  <path d="M7 11c-3-6-7-4-6-1s3 6 6 5" fill="#E8D5BF" stroke="#D4C0A8" stroke-width="0.5"/>
  <path d="M25 11c3-6 7-4 6-1s-3 6-6 5" fill="#E8D5BF" stroke="#D4C0A8" stroke-width="0.5"/>
  <!-- Eyes -->
  <circle cx="12" cy="13" r="1.8" fill="#5D4037"/>
  <circle cx="20" cy="13" r="1.8" fill="#5D4037"/>
  <circle cx="11.5" cy="12.5" r="0.6" fill="#fff"/>
  <circle cx="19.5" cy="12.5" r="0.6" fill="#fff"/>
  <!-- Nose -->
  <ellipse cx="16" cy="16" rx="1.8" ry="1.2" fill="#8B6F5E"/>
  <!-- Mouth -->
  <path d="M14 17.5c1 1.2 3 1.2 4 0" stroke="#8B6F5E" stroke-width="0.6" fill="none" stroke-linecap="round"/>
  <!-- Cheeks -->
  <circle cx="10" cy="16" r="2.5" fill="#FFB5B5" opacity="0.4"/>
  <circle cx="22" cy="16" r="2.5" fill="#FFB5B5" opacity="0.4"/>
</svg>
